<?xml version="1.0" encoding="UTF-8"?>
<svg xmlns="http://www.w3.org/2000/svg" width="615" height="417" viewBox="0 0 615 417" fill="none">
  <g clip-path="url(#clip0_209_1078)">
    <path d="M168.341 174.685C168.341 174.685 167.841 174.809 167.653 174.995C167.466 175.181 167.403 175.491 167.466 175.739C167.591 176.545 168.154 177.227 168.904 177.66C169.28 177.846 169.593 177.97 169.968 178.032C169.905 178.776 169.843 179.52 169.78 180.264C169.655 181.876 169.593 183.425 169.28 184.913C168.967 186.587 168.029 189.562 165.589 191.112L165.151 191.36C164.588 191.67 163.962 192.042 163.525 192.662C163.087 193.22 162.962 194.026 163.149 194.707C163.274 195.265 163.65 195.699 164.15 195.947C164.651 196.195 165.214 196.133 165.589 196.071L170.531 195.575C171.282 195.513 172.032 195.451 172.595 195.637C172.72 195.637 172.846 195.761 172.908 195.823C172.47 195.947 172.095 196.133 171.72 196.443C170.719 197.311 170.156 198.799 170.468 200.039C170.781 201.526 171.845 202.642 172.908 203.51C171.594 204.44 170.719 206.051 170.781 207.663V208.035C170.781 208.345 170.844 209.027 170.781 209.461L170.156 208.717C170.156 208.717 169.655 208.407 169.342 208.407L162.211 209.337C162.211 209.337 161.898 209.337 161.71 209.399C161.273 209.523 160.96 209.957 161.022 210.391C161.085 210.825 161.523 211.135 162.023 211.135H162.336C162.836 211.011 163.149 211.382 163.399 211.63C163.962 212.25 164.275 213.18 164.025 213.924C163.65 215.288 162.211 216.466 160.334 216.838C158.52 217.209 156.643 216.838 154.767 216.59C154.329 216.528 153.891 216.776 153.766 217.209C153.641 217.643 153.828 218.077 154.266 218.263C156.831 219.379 159.521 220.557 161.648 222.417C164.025 224.462 165.526 224.462 166.465 223.904C166.465 223.904 166.465 223.966 166.465 224.028C166.465 224.4 166.215 225.02 165.777 225.144C165.089 225.454 164.213 225.268 163.274 225.144C162.899 225.144 162.524 225.02 162.148 225.02C159.646 224.772 157.269 225.702 155.142 226.446L148.949 228.739C148.511 228.863 148.323 229.297 148.386 229.731C148.511 230.351 148.886 230.847 149.449 231.157C150.763 231.901 152.64 231.529 153.39 231.281C154.329 231.033 155.392 231.095 155.83 231.405C155.955 231.467 156.018 231.591 156.018 231.715C156.018 232.149 156.33 232.459 156.768 232.521C158.332 232.769 159.583 231.591 160.647 230.537C161.648 229.545 162.273 228.987 162.899 229.173C163.274 229.297 163.587 229.731 163.962 230.227C164.275 230.723 164.713 231.219 165.276 231.591C166.027 232.087 166.903 232.211 167.591 232.335L174.41 233.389C176.161 233.637 178.1 233.946 180.102 234.07C180.54 234.07 180.978 234.07 181.416 234.07C184.231 234.07 186.421 233.513 188.172 232.335C188.547 232.087 188.673 231.653 188.485 231.219C188.297 230.785 187.797 230.661 187.421 230.785C186.796 230.971 186.295 230.599 185.92 230.289C185.607 229.917 185.294 229.359 185.482 228.801C185.857 227.748 187.296 227.376 188.798 226.942C190.612 226.446 192.614 225.95 193.302 224.028C194.052 222.045 192.739 219.999 190.987 219.131C189.736 218.511 188.297 218.325 187.046 218.325C187.296 216.9 187.484 215.35 187.171 213.862C186.984 212.56 186.421 211.321 185.607 210.453C185.732 210.453 185.857 210.329 185.92 210.267C187.859 208.531 187.421 205.741 186.858 203.448L186.421 201.898C185.92 199.915 185.357 197.745 184.544 195.575C184.043 194.212 183.168 192.848 181.979 192.29C181.979 192.042 181.979 191.794 181.979 191.608C182.104 190.616 181.791 189.562 181.103 188.757C180.603 188.075 179.915 187.579 179.164 187.331C179.289 187.207 179.352 187.083 179.414 186.897L179.727 185.409C181.541 185.719 183.355 184.975 184.606 183.921C186.108 182.62 186.984 180.946 187.797 179.21C187.984 178.838 188.172 178.466 188.172 177.908C188.172 176.855 187.484 175.925 186.17 175.243C184.294 174.313 182.104 174.003 180.04 174.375C178.413 174.685 177.913 174.437 177.725 174.189C177.725 174.065 177.725 173.817 178.351 173.259C180.227 171.524 182.73 170.408 185.294 170.098C185.67 170.098 185.983 169.788 186.045 169.416C186.17 168.858 186.045 168.3 185.732 167.804C185.169 166.998 183.918 166.502 182.042 166.378C180.29 166.255 178.538 165.387 177.35 164.147C177.099 163.837 176.662 163.775 176.286 163.961C175.911 164.147 175.786 164.519 175.848 164.953L176.411 167.494L173.972 167.37C173.659 167.37 173.346 167.494 173.221 167.804C173.033 168.052 173.033 168.424 173.221 168.672C173.471 169.23 173.909 169.664 174.41 170.098C174.159 170.284 173.972 170.408 173.596 170.346C173.096 170.346 172.658 169.85 172.658 169.354C172.658 168.858 172.22 168.486 171.72 168.486C171.282 168.486 170.969 168.858 170.906 169.23C170.844 169.664 170.031 172.453 169.905 172.763C169.405 174.127 169.092 174.561 168.154 174.561L168.341 174.685ZM177.788 187.145C177.225 187.145 176.161 187.083 176.224 186.649C176.349 186.525 176.536 186.463 176.724 186.463C177.099 186.463 177.537 186.773 177.975 187.145C177.975 187.145 177.85 187.145 177.788 187.145Z" fill="#D4D4D4"></path>
    <path d="M129.556 212.87C130.307 213.304 131.12 213.304 131.871 213.304C132.496 213.304 133.059 213.304 133.435 213.552C133.56 213.676 133.747 213.862 133.872 214.048C133.998 214.234 134.185 214.42 134.373 214.544C135.061 215.164 135.937 215.536 136.938 215.536C138.251 215.536 139.815 214.978 141.442 213.8C143.131 212.622 144.757 211.444 146.634 212.002C147.072 212.126 147.51 212.312 147.885 212.498C149.011 212.994 150.388 213.676 152.139 212.684C153.328 212.002 154.141 210.887 154.767 209.957C155.392 209.089 156.143 207.973 156.268 206.671C156.268 205.927 156.205 205.246 156.018 204.626C155.893 204.068 155.767 203.51 155.83 203.014C155.83 202.58 156.08 202.146 156.268 201.65C156.518 201.03 156.831 200.534 157.081 199.977C157.144 199.977 157.206 199.977 157.269 199.853C157.394 199.667 157.457 199.481 157.457 199.233C157.832 198.613 158.27 198.117 158.833 197.683L159.083 197.559C159.709 197.125 160.647 196.505 160.647 195.451C160.647 194.955 160.459 194.583 160.334 194.274C160.272 194.15 160.146 193.964 160.146 193.902C160.146 193.902 160.397 193.716 160.522 193.654C160.772 193.53 161.085 193.344 161.335 193.096C161.836 192.6 161.961 191.918 161.836 191.236C161.648 190.368 161.022 189.562 160.146 189.19C159.458 188.881 158.708 188.819 158.02 188.819C157.644 188.819 157.269 188.819 156.894 188.819C156.456 188.819 156.08 188.819 155.642 188.757C155.83 188.571 156.018 188.323 156.205 188.075C156.33 187.827 156.393 187.517 156.205 187.269C156.08 187.021 155.83 186.835 155.517 186.773C153.39 186.463 151.201 186.401 149.011 186.711C148.01 186.835 146.884 187.083 146.071 187.889C145.508 188.385 145.195 189.19 145.258 189.934C145.258 190.554 145.571 191.112 146.009 191.484C146.071 191.484 146.134 191.608 146.196 191.67C145.883 191.98 145.883 192.538 146.196 192.848V192.972C146.196 192.972 145.946 193.096 145.821 193.158C145.32 193.282 145.008 192.972 144.257 191.98C144.069 191.732 143.882 191.422 143.631 191.174C142.193 189.562 141.004 188.942 140.003 189.252C138.564 189.686 138.314 191.546 138.251 192.166C138.126 193.344 136.312 193.902 134.873 194.15C134.623 194.15 134.435 194.336 134.31 194.521C134.185 194.707 134.123 194.955 134.185 195.203C134.623 196.815 136.187 197.993 137.814 198.055C138.251 199.109 138.064 200.41 137.313 201.34C136.5 202.394 134.998 202.89 133.685 202.518C133.435 202.456 133.184 202.518 132.997 202.58C132.809 202.704 132.621 202.89 132.559 203.138C132.371 203.882 132.559 204.626 132.872 205.246C132.621 205.246 132.371 205.122 132.121 205.06C130.807 204.75 129.243 204.44 128.117 205.618C127.054 206.733 127.367 208.407 127.554 209.213C127.742 210.205 128.055 212.002 129.556 212.808V212.87Z" fill="#D4D4D4"></path>
    <path d="M129.181 96.6409L135.749 97.0128C136.187 97.0128 136.688 97.0128 136.938 97.2607C137.376 97.5707 137.501 98.4385 137.563 99.1204C138.126 103.274 139.941 105.877 142.568 106.373C143.569 106.559 144.695 106.373 145.446 106.621C145.758 106.745 146.134 106.993 146.446 107.241C146.822 107.489 147.26 107.799 147.823 108.047C148.323 108.233 148.761 108.295 149.199 108.295C150.7 108.295 152.014 107.489 152.765 106.931C153.203 106.621 153.578 106.311 153.953 106.001C154.704 105.381 155.392 104.823 156.143 104.451C157.269 103.956 158.708 103.832 160.146 103.77C162.336 103.646 164.651 103.46 166.215 101.724C167.841 99.8643 167.653 97.4467 167.466 95.1531C167.278 93.1075 167.153 91.1238 168.279 89.8841C168.592 89.5121 168.592 88.9542 168.279 88.6443C166.84 87.2805 164.963 87.7764 163.337 88.2103C162.148 88.5203 161.085 88.8302 160.146 88.5203C159.583 88.3343 159.146 87.9624 158.583 87.4665C158.332 87.2805 158.145 87.0946 157.894 86.9086C155.142 84.801 151.201 84.677 148.073 86.4747C147.009 85.1109 147.572 83.2512 148.448 80.8957C149.262 78.788 149.199 76.1845 147.197 75.2547C146.947 75.1307 146.697 75.1307 146.446 75.2547C146.196 75.3786 146.009 75.6266 145.946 75.8745L145.258 79.2219C144.507 78.1061 143.882 76.9284 143.444 75.6266C143.319 75.2546 142.881 75.0067 142.505 75.0687C142.067 75.0687 141.755 75.4406 141.755 75.8745V77.5482C141.192 77.2383 140.691 76.9903 140.128 76.8664C138.689 76.5564 137.063 77.2383 136.688 78.726C136.688 78.974 136.688 79.2219 136.813 79.4079C136.938 79.5939 137.188 79.7798 137.376 79.7798C138.439 79.9658 139.565 80.2138 140.003 80.9576C140.128 81.1436 140.066 81.4536 140.003 81.7015C139.878 81.9495 139.753 82.0114 139.69 82.0114C139.252 81.8255 138.814 81.9495 138.564 82.3214C138.314 82.6933 138.377 83.1892 138.752 83.4992C139.941 84.429 141.254 85.1109 142.756 85.4828C142.756 85.4828 142.693 85.5448 142.63 85.6068C142.067 86.0407 140.941 86.1027 140.253 85.7928C139.628 85.4828 139.065 85.0489 138.502 84.615C137.626 83.9331 136.75 83.2512 135.624 82.9413C135.124 82.7553 134.248 82.7553 133.622 83.1892C133.247 83.4372 132.997 83.8711 132.934 84.305C132.934 84.801 133.122 85.1729 133.247 85.4208C133.81 86.3507 134.686 87.0326 135.499 87.5905C135.874 87.9004 136.25 88.1484 136.625 88.5203C137.438 89.2642 137.939 90.5039 137.438 91.1858C137.188 91.4338 136.813 91.6817 136.375 91.8677L128.93 95.1531C128.555 95.3391 128.367 95.711 128.43 96.1449C128.493 96.5789 128.868 96.8268 129.243 96.8888L129.181 96.6409Z" fill="#D4D4D4"></path>
    <path d="M218.888 310.751C215.009 311.619 214.509 317.012 215.134 319.739C215.259 320.235 215.447 320.855 215.948 321.351C216.073 321.475 216.26 321.599 216.448 321.723C216.511 321.785 216.698 321.847 216.698 321.971C216.698 322.219 216.698 322.591 216.886 322.963C217.136 323.397 217.574 323.645 218.012 323.645C218.763 323.645 219.513 322.963 219.826 322.343C220.264 321.413 220.514 320.359 220.452 319.367V318.995C220.452 318.561 220.452 318.19 220.514 318.004C220.639 317.818 220.89 317.694 221.202 317.508C221.453 317.384 221.703 317.198 221.953 317.012C223.204 316.02 223.58 314.408 222.829 312.858C222.078 311.247 220.389 310.379 218.825 310.751H218.888Z" fill="#D4D4D4"></path>
    <path d="M219.326 324.202C217.637 324.202 215.134 325.07 213.445 325.628L213.007 325.752C209.442 327.054 209.379 329.038 209.504 332.137C209.504 332.447 209.754 332.757 210.005 332.881C210.505 333.067 210.943 333.191 211.381 333.253C211.631 333.253 211.881 333.315 212.132 333.377C212.382 333.439 212.507 333.625 212.569 333.625C212.569 333.625 212.382 333.749 212.319 333.811C212.069 333.935 211.756 334.121 211.569 334.431C211.318 334.803 211.256 335.175 211.193 335.422L210.192 340.63C210.192 340.63 210.067 341.311 210.255 341.745C210.63 342.551 211.569 342.613 211.881 342.613C212.507 342.613 214.321 342.799 215.009 341.373C215.072 341.187 215.134 341.001 215.197 340.816C215.197 340.816 215.197 340.816 215.197 340.754C215.885 341.001 216.448 341.683 216.511 342.427C216.511 342.799 216.761 343.109 217.136 343.233C217.261 343.233 217.324 343.233 217.449 343.233C217.699 343.233 217.949 343.109 218.137 342.923C219.201 341.683 220.201 340.32 220.076 338.708C220.076 338.336 219.951 338.026 219.889 337.654C219.889 337.468 219.764 337.282 219.764 337.096C219.638 336.414 219.764 335.67 219.951 334.927C220.014 334.493 220.076 334.059 220.139 333.563C220.264 332.695 220.389 331.765 220.639 331.083C220.764 330.711 221.14 330.339 221.453 329.905C221.953 329.286 222.516 328.604 222.704 327.798C222.891 326.682 222.704 325.814 222.203 325.194C221.64 324.45 220.702 324.079 219.388 324.017L219.326 324.202Z" fill="#D4D4D4"></path>
    <path d="M175.723 328.976C175.723 328.976 175.598 328.914 175.536 328.852C175.536 328.542 175.473 328.232 175.223 328.046C174.847 327.736 174.284 327.798 173.972 328.17C172.095 327.922 170.281 328.294 168.654 329.1C168.279 329.286 168.091 329.72 168.216 330.153C168.341 330.587 168.717 330.835 169.155 330.773C171.031 330.525 173.221 331.393 174.472 332.881C174.66 333.067 174.91 333.191 175.16 333.191C175.41 333.253 175.661 333.067 175.848 332.819C177.225 331.021 176.724 329.967 176.286 329.472C176.161 329.286 175.911 329.1 175.723 328.976Z" fill="#D4D4D4"></path>
    <path d="M241.033 188.075C241.033 188.075 240.658 188.447 240.595 188.695C240.095 188.88 239.657 189.128 239.156 189.376C238.843 189.5 238.656 189.81 238.656 190.12C238.656 190.43 238.781 190.74 239.094 190.926C240.22 191.608 241.471 192.104 242.785 192.29C242.785 192.476 242.91 192.6 242.972 192.786C243.222 193.22 243.723 193.468 244.223 193.468C244.474 193.468 244.724 193.406 244.912 193.282C245.162 193.158 245.287 192.91 245.412 192.786C246.288 191.484 246.663 189.872 246.475 188.323C246.475 187.951 246.225 187.703 245.85 187.579C244.223 187.083 242.409 187.269 240.97 188.075H241.033Z" fill="#D4D4D4"></path>
    <path d="M248.415 210.639C248.915 210.639 249.228 210.329 249.353 210.205C251.73 208.159 253.169 204.998 253.106 202.208C253.106 201.898 252.981 201.65 252.731 201.526C252.481 201.402 252.231 201.34 251.918 201.402C250.854 201.774 250.104 202.828 249.478 203.758C249.291 204.068 249.103 204.316 248.915 204.502C248.728 204.688 248.54 204.998 248.29 205.184C248.29 205.184 248.29 204.936 248.29 204.812C248.29 204.688 248.29 204.564 248.29 204.44C248.227 203.882 247.852 203.324 247.414 203.076C247.038 202.89 246.601 202.89 246.225 203.076C245.912 203.2 245.725 203.448 245.6 203.634L244.786 204.812C244.786 204.812 244.286 205.494 244.223 205.989C244.161 206.547 244.349 207.043 244.536 207.415C244.912 208.283 245.6 209.833 247.164 210.267H247.476C247.476 210.267 247.664 210.391 247.727 210.391C247.852 210.453 248.039 210.577 248.352 210.639C248.352 210.639 248.415 210.639 248.477 210.639H248.415Z" fill="#D4D4D4"></path>
    <path d="M244.661 210.267C245.037 209.585 244.849 208.779 244.661 208.221C244.223 207.229 243.535 206.485 242.722 206.113C242.409 205.989 242.034 205.865 241.721 205.865C241.721 205.865 241.721 205.865 241.659 205.865C241.221 205.68 240.72 205.68 240.22 205.865C239.719 206.113 239.281 206.547 239.156 207.043C238.969 207.787 239.156 208.655 239.844 209.337C240.282 209.833 240.908 210.081 241.408 210.391L242.347 210.825C242.347 210.825 242.91 211.073 243.348 211.073C243.41 211.073 243.535 211.073 243.66 211.073C244.098 211.011 244.474 210.701 244.724 210.329L244.661 210.267Z" fill="#D4D4D4"></path>
    <path d="M247.101 215.04C247.101 215.04 247.289 215.04 247.351 215.04C247.539 215.04 247.727 215.04 247.852 214.916C248.102 214.792 248.227 214.544 248.227 214.234C248.29 213.242 247.664 212.312 246.726 212.002C245.975 211.197 244.786 210.763 243.723 210.949C243.41 210.949 243.16 211.197 243.035 211.506C242.91 211.816 243.035 212.126 243.16 212.374C244.161 213.614 245.537 214.544 247.038 215.04H247.101Z" fill="#D4D4D4"></path>
    <path d="M300.525 185.595C300.963 185.595 301.401 185.409 301.588 185.347L303.966 184.293C304.529 184.045 305.342 183.673 305.842 182.93C306.343 182.124 306.218 181.07 305.592 180.45C305.467 180.326 305.342 180.264 305.217 180.14C305.217 180.14 305.217 180.14 305.217 180.078C304.966 179.644 304.403 179.582 303.966 179.83L303.653 180.016C303.653 180.016 303.277 180.202 303.152 180.326L300.4 182.124C300.087 182.31 299.587 182.62 299.274 183.177C298.836 183.921 299.024 184.851 299.712 185.347C299.962 185.533 300.275 185.595 300.525 185.595Z" fill="#D4D4D4"></path>
    <path d="M380.973 79.9038C380.973 79.9038 381.536 80.2758 381.724 80.4617C381.787 80.5857 381.912 80.7097 381.974 80.8337C382.287 81.3296 382.85 82.1354 383.789 82.1354C383.789 82.1354 383.851 82.1354 383.914 82.1354C385.165 82.0734 385.478 80.8337 385.728 80.1518V79.9038C385.915 79.5939 386.103 79.2219 386.291 78.912C386.416 78.664 386.604 78.3541 386.729 78.1061C387.229 77.0523 387.229 75.9985 386.729 75.1927C386.291 74.4488 385.478 74.1388 384.915 73.8909C384.539 73.7669 384.164 73.5809 383.976 73.395C383.851 73.271 383.726 73.147 383.601 72.9611C383.476 72.7751 383.351 72.5891 383.163 72.4651C382.475 71.7213 381.411 71.4113 380.348 71.4733C380.098 71.4733 379.91 71.5973 379.722 71.7833C379.597 71.9692 379.472 72.2172 379.535 72.4651C379.597 73.023 379.535 73.7669 379.347 74.5108C379.097 75.9985 378.847 77.6722 379.785 78.912C380.16 79.4079 380.598 79.6559 381.036 79.9658L380.973 79.9038Z" fill="#D4D4D4"></path>
    <path d="M166.903 163.713L166.402 163.961C164.838 164.705 163.274 166.193 163.712 168.052C163.775 168.362 164.025 168.61 164.338 168.734C164.4 168.734 164.463 168.734 164.588 168.734C164.838 168.734 165.089 168.61 165.214 168.424C165.964 167.618 167.278 167.494 168.404 167.494C168.717 167.494 169.092 167.494 169.53 167.246C170.093 166.936 170.343 166.316 170.468 166.007L171.094 164.395C171.094 164.395 171.157 163.775 170.969 163.527C170.781 163.279 170.468 163.155 170.156 163.155C170.031 163.155 169.905 163.155 169.843 163.155C169.843 163.031 169.78 162.969 169.718 162.907C169.405 162.535 168.842 162.473 168.467 162.783C168.091 163.093 167.591 163.341 167.028 163.589L166.903 163.713Z" fill="#D4D4D4"></path>
    <path d="M165.652 202.704C166.027 202.704 166.402 202.704 166.778 202.58C167.841 202.27 168.592 201.526 168.717 200.596C168.717 200.348 168.717 200.101 168.467 199.915C168.279 199.729 168.029 199.605 167.778 199.605C167.778 199.605 167.403 199.605 167.215 199.605C167.215 199.543 167.215 199.419 167.09 199.357C166.84 198.923 166.277 198.799 165.902 199.047C164.963 199.605 164.213 200.41 163.775 201.402C163.65 201.65 163.65 201.96 163.775 202.208C163.9 202.456 164.15 202.642 164.463 202.642C164.838 202.642 165.214 202.704 165.589 202.704H165.652Z" fill="#D4D4D4"></path>
    <path d="M165.589 171.338L166.965 174.189C166.965 174.189 167.403 174.685 167.778 174.685C168.154 174.685 168.467 174.437 168.529 174.065C168.905 173.011 168.529 171.958 168.404 171.214C168.279 170.718 168.091 170.098 167.591 169.664C166.903 168.982 165.839 168.92 165.151 169.478C164.776 169.788 164.776 170.408 165.089 170.78C165.151 170.842 165.276 170.966 165.339 170.966C165.339 171.09 165.464 171.214 165.526 171.338H165.589Z" fill="#D4D4D4"></path>
    <path d="M183.042 327.178C182.605 327.054 182.479 326.93 182.479 326.806C182.479 326.62 182.479 326.372 182.292 326.124C182.104 325.752 181.791 325.504 181.416 325.38C180.978 325.256 180.478 325.318 180.04 325.566C179.602 325.876 179.226 326.31 179.039 326.992C178.976 327.302 179.039 327.612 179.226 327.86C179.226 328.294 179.289 328.79 179.539 329.224C179.977 330.091 180.853 330.649 181.729 330.649C181.729 330.649 181.979 330.649 182.104 330.649C182.167 330.649 182.354 330.649 182.417 330.711C182.542 330.835 182.73 331.083 182.98 331.207C183.23 331.331 183.48 331.393 183.731 331.393C184.106 331.393 184.481 331.269 184.794 330.959C185.42 330.401 185.607 329.534 185.294 328.79C184.794 327.736 183.668 327.364 183.042 327.116V327.178Z" fill="#D4D4D4"></path>
    <path d="M164.15 332.075C164.15 332.075 163.837 332.075 163.65 332.075C163.65 331.889 163.525 331.703 163.399 331.579C163.087 331.269 162.524 331.269 162.148 331.579L160.897 332.881C160.897 332.881 160.772 332.881 160.772 332.943C160.584 333.067 160.459 333.191 160.397 333.377L157.707 336.104C157.707 336.104 157.394 336.724 157.519 337.096C157.644 337.406 157.957 337.592 158.332 337.592C159.646 337.53 161.147 337.406 162.461 336.786C163.775 336.166 165.089 334.617 164.963 332.881C164.963 332.447 164.525 332.075 164.088 332.075H164.15Z" fill="#D4D4D4"></path>
    <path d="M184.794 165.263H186.546C186.921 165.263 187.296 164.953 187.359 164.643C187.547 164.085 187.484 163.403 187.109 162.845C186.984 162.597 186.733 162.349 186.546 162.163C186.546 161.915 186.358 161.729 186.108 161.605C185.67 161.357 185.107 161.481 184.919 161.915C184.794 162.039 184.669 162.225 184.669 162.411C184.419 162.969 184.168 163.527 183.981 164.085C183.918 164.333 183.981 164.643 184.106 164.829C184.294 165.015 184.544 165.139 184.794 165.139V165.263Z" fill="#D4D4D4"></path>
    <path d="M509.654 181.628C507.652 180.078 505.212 181.07 503.023 181.938C500.708 182.868 499.207 183.301 498.268 182.31C497.956 182 497.83 181.504 497.893 181.008C497.955 180.512 498.268 180.078 498.644 179.83C498.956 179.644 499.144 179.21 499.082 178.838C498.956 178.404 498.581 178.218 498.143 178.156C495.578 178.156 493.076 179.334 491.387 181.256C488.572 176.855 486.883 171.648 486.57 166.44C486.57 166.193 486.382 165.883 486.195 165.759C484.944 164.891 484.13 163.403 484.193 161.915C484.193 161.419 483.818 161.047 483.38 160.985C482.754 160.985 482.504 161.295 482.441 161.791C482.254 164.395 479.626 166.316 476.874 167.928C476.373 168.238 475.873 168.548 475.31 168.61C474.622 168.672 474.059 168.3 473.746 167.866C473.433 167.432 473.183 166.75 473.496 166.193C473.808 165.635 474.497 165.387 474.997 165.325C475.56 165.325 476.248 165.511 476.561 166.069C476.749 166.378 477.124 166.564 477.499 166.502C477.875 166.44 478.187 166.131 478.187 165.759L478.876 159.126C478.876 158.63 479.001 158.01 478.75 157.39C477.812 155.096 474.872 155.84 472.995 156.274C470.368 156.956 467.428 156.026 465.551 154.167L466.677 153.981C466.677 153.981 467.24 153.733 467.365 153.485C467.49 153.237 467.428 152.865 467.302 152.617C465.301 149.641 464.425 145.984 464.925 142.451C464.925 142.017 465.05 141.583 465.176 141.149C465.551 139.413 465.989 137.492 464.738 136.066C464.55 135.88 464.3 135.756 464.049 135.756C463.862 135.756 463.549 135.88 463.361 136.066C463.049 135.446 462.861 134.826 462.611 134.082C462.11 132.718 461.61 131.293 460.546 130.115C460.171 129.743 459.733 129.371 459.233 129.061C458.982 128.875 458.795 128.751 458.544 128.565C456.918 127.201 455.917 125.032 455.917 122.738C455.917 122.304 455.917 121.808 455.729 121.25C455.354 120.321 454.478 119.825 453.853 119.453C453.665 119.329 453.477 119.267 453.352 119.143C452.977 118.895 452.727 118.461 452.789 118.337C453.039 118.089 453.164 117.779 453.039 117.469C452.601 116.105 451.851 114.494 451.1 112.944C450.412 111.456 449.661 109.968 449.286 108.729C448.911 107.489 448.473 105.939 447.347 104.761C446.596 103.956 445.72 103.398 444.844 102.902C444.344 102.592 443.781 102.282 443.343 101.91C441.654 100.608 440.778 98.5625 439.902 96.4549C439.715 95.959 439.464 95.5251 439.277 95.0291C438.464 93.2934 437.525 91.8677 436.462 90.8759C436.712 90.8759 437.025 90.8759 437.212 90.6279C437.463 90.38 437.588 89.946 437.4 89.6361C436.086 86.7226 436.337 83.1273 438.088 80.3997L438.338 79.9658C439.214 78.6021 440.34 76.9903 439.527 75.2547C439.214 74.6348 438.714 74.1388 438.276 73.7669C438.026 73.519 437.713 73.333 437.588 73.085C436.775 71.9692 437.588 70.1716 438.401 68.5598C440.09 65.4604 439.715 63.6007 438.964 62.5469C439.339 60.9352 438.401 59.3235 437.275 58.3936C436.337 57.5878 435.211 57.2778 434.272 57.4638C433.709 56.162 432.583 55.1082 431.207 54.4263C429.643 53.6825 427.829 53.4965 426.327 54.0544C425.327 53.6825 424.638 52.4427 424.889 51.3889C424.951 51.1409 424.889 50.831 424.701 50.645C424.513 50.3971 424.263 50.3351 423.95 50.3351L418.195 50.583C416.819 50.583 415.192 50.707 413.753 51.3889C412.315 52.0708 410.938 53.6825 411.189 55.6041C411.376 57.0299 412.377 58.0217 413.316 58.8276C413.628 59.1375 414.004 59.4474 414.316 59.8194C414.817 60.3773 414.942 61.4311 414.692 61.927C414.567 62.175 414.442 62.175 414.316 62.237C413.879 62.237 413.503 62.6089 413.441 63.0428C413.441 63.4767 413.691 63.9107 414.129 63.9726C414.942 64.1586 415.38 65.0265 415.443 65.7083C415.505 66.3282 415.443 67.0721 414.879 67.506C413.128 66.6382 412.064 64.4686 412.627 62.5469C412.753 62.175 412.627 61.803 412.252 61.5551C411.939 61.3071 411.501 61.3691 411.189 61.5551C408.937 63.2908 407.936 66.3282 408.624 69.0557H405.496C405.183 69.0557 404.808 69.2417 404.683 69.5517C404.182 70.6055 403.995 71.7833 403.869 72.8371C403.869 73.271 403.744 73.6429 403.682 74.0769C403.432 75.1927 402.994 76.6184 401.868 77.1763C401.43 77.4243 400.742 77.4243 400.241 77.1763C399.991 77.0523 399.741 76.8044 399.678 76.4944C399.678 76.0605 399.928 75.4406 400.179 74.8827C400.679 73.8909 401.242 72.6511 400.304 71.4733C399.866 70.9774 399.24 70.6055 398.427 70.5435C397.176 70.4195 395.8 70.9154 394.861 71.9692C393.923 73.023 393.485 74.3868 393.798 75.5646C393.923 76.0605 394.048 76.5564 394.236 77.0523C394.736 78.4161 394.861 79.098 394.486 79.2839C394.361 79.2839 394.298 79.2839 394.173 79.2839C393.735 79.16 393.11 78.4161 392.734 77.6102C392.609 77.3003 392.296 77.1143 391.984 77.1143C391.671 77.1143 391.358 77.2383 391.17 77.4863L387.229 83.4372C386.916 83.8711 386.541 84.491 386.416 85.1729C386.291 85.9168 386.541 86.5986 386.791 87.2805C387.229 88.5203 388.543 92.6736 386.166 94.0993C385.227 94.6572 383.914 94.5952 382.6 94.5332C381.161 94.4092 379.535 94.3473 378.158 95.1531C377.158 94.2853 376.532 92.9215 376.532 91.5578C379.597 91.4338 381.411 90.38 382.037 88.5823C382.162 88.2104 382.037 87.8384 381.724 87.5905C376.157 83.4372 371.215 82.5074 367.899 84.9249C367.524 85.1729 367.399 85.6688 367.649 86.0407C368.149 86.8466 368.837 87.4045 369.526 87.9004C369.776 88.0864 370.089 88.3343 370.339 88.5203C372.841 90.7519 372.653 94.7192 372.09 98.6245C372.09 98.9344 372.153 99.2444 372.403 99.4304C372.653 99.6163 372.966 99.6783 373.216 99.6163C375.343 98.9964 376.782 99.0584 377.345 99.8643C377.783 100.422 377.783 101.352 377.783 102.282C377.783 102.716 377.783 103.15 377.846 103.646C376.97 103.46 376.031 103.46 375.156 103.646L374.843 101.91C374.78 101.538 374.53 101.29 374.155 101.228C371.715 100.732 369.526 102.654 368.337 104.637C368.024 105.133 367.774 105.691 367.461 106.249C366.836 107.489 366.21 108.729 365.209 109.535C364.959 109.721 364.646 109.968 364.396 110.154C363.082 111.084 361.456 112.324 361.956 114.184C362.081 114.618 362.519 114.866 362.957 114.804C363.583 114.742 364.396 114.99 364.959 115.547C365.522 116.105 365.835 116.849 365.71 117.531C365.71 117.965 365.897 118.337 366.335 118.523C367.774 118.957 369.088 119.825 370.089 121.003C368.525 120.817 366.836 120.693 365.084 120.569C361.831 120.321 358.515 120.135 355.763 119.453C355.325 119.329 354.887 119.577 354.699 119.949L353.636 122.552C353.636 122.552 353.573 123.11 353.636 123.358C353.761 123.606 354.011 123.73 354.324 123.792C356.514 124.04 361.581 124.908 361.768 128.131C361.768 128.441 361.768 128.689 361.643 128.751C361.643 128.751 361.456 128.875 361.018 128.875C359.141 128.875 357.264 128.317 355.7 127.325C354.574 126.582 352.948 125.838 351.697 126.21C351.446 126.272 351.196 126.396 351.009 126.52C348.882 125.032 347.38 122.738 347.005 120.197C346.942 119.763 346.88 119.329 346.88 118.895C346.755 117.717 346.63 116.539 346.067 115.362C345.504 114.308 344.378 113.44 343.189 113.254C342.814 113.192 342.501 113.254 342.125 113.254C341.625 112.2 340.311 111.27 338.372 110.774C337.309 110.526 336.37 109.906 336.057 109.349C335.995 109.163 335.932 109.039 336.057 108.853C336.057 108.853 336.183 108.605 336.495 108.481C336.933 108.357 337.559 108.419 337.997 108.605C338.435 108.853 338.872 109.163 339.31 109.535C339.811 109.907 340.311 110.34 340.937 110.65C342.876 111.642 344.941 111.394 347.005 111.146C348.944 110.898 350.821 110.65 352.197 111.58C352.447 111.766 352.698 111.952 352.885 112.138C353.323 112.51 353.761 112.882 354.387 113.192C356.263 114.06 358.39 112.944 359.579 111.766C360.142 111.208 360.642 110.526 361.143 109.906C361.643 109.287 362.081 108.667 362.644 108.171C363.02 107.799 363.395 107.489 363.833 107.179C364.896 106.373 366.022 105.505 366.523 104.142C367.023 102.84 366.836 101.476 366.648 100.422C366.085 96.7028 364.208 92.7975 360.83 93.0455C360.267 93.0455 359.704 93.2315 359.204 93.4174C358.891 93.5414 358.578 93.6034 358.265 93.6654C356.263 94.0373 354.637 92.7355 352.698 91.2478C351.509 90.318 350.32 89.3881 348.944 88.8302C346.504 87.7764 343.877 87.9624 341.375 88.2103C339.31 88.3343 337.434 88.5203 335.62 88.0864C334.619 87.8384 333.555 87.3425 332.492 86.9086C330.302 85.9787 328.05 84.9249 325.61 85.6688C324.86 85.9168 324.109 86.2887 323.546 86.8466C323.421 86.7226 323.296 86.7226 323.108 86.6606C323.108 86.4747 323.233 86.2267 323.108 86.0407C322.295 84.367 322.045 82.3834 322.482 80.5857C322.67 79.8418 322.482 79.4699 322.232 79.098C322.17 78.974 322.107 78.912 322.107 78.788C322.045 78.4781 321.794 78.2301 321.482 78.1681C321.169 78.1061 320.856 78.1681 320.606 78.3541C320.168 78.726 319.48 78.726 319.042 78.6021C318.541 78.4781 318.041 78.1061 317.916 77.4863C317.853 77.1143 317.54 76.8044 317.165 76.8044C316.102 76.6804 315.038 77.0523 314.225 77.8582C313.662 78.3541 313.349 78.974 313.161 79.6559L312.286 79.5319L314.287 75.1307C314.413 74.8207 314.35 74.3868 314.1 74.1388C313.85 73.8909 313.474 73.8289 313.099 73.9529C310.659 75.0687 308.908 77.4863 308.532 80.0898C308.532 80.0898 308.47 79.9658 308.407 79.9038C308.219 79.5939 308.157 79.16 308.407 78.85C308.657 78.4781 308.595 77.9202 308.219 77.6722C307.844 77.4243 307.281 77.4243 307.031 77.7962L305.717 79.2839C305.717 79.2839 305.717 78.788 305.842 78.5401C306.092 77.8582 306.593 77.3003 307.156 77.1763C307.531 77.0523 307.782 76.7424 307.782 76.3704C307.782 75.9985 307.531 75.6266 307.156 75.5026C304.966 74.7587 302.84 76.3705 301.651 78.0442C301.401 78.4161 301.15 78.788 300.9 79.16C300.15 80.2758 299.524 81.3296 298.46 81.8255C297.772 82.1974 296.897 82.3214 295.958 82.5074C295.082 82.6313 294.144 82.8173 293.206 83.1892C291.892 83.8091 290.891 85.4208 291.016 86.9086C291.016 87.1565 291.016 87.3425 291.141 87.5905L285.887 88.5823C285.887 88.5823 285.323 88.8302 285.198 89.1402C285.073 89.4501 285.136 89.7601 285.323 90.008L286.575 91.6817C284.76 91.6817 282.571 92.0537 281.132 93.6034C280.319 94.4712 279.944 95.587 279.506 96.7028C278.88 98.4385 278.129 100.236 277.379 102.034C276.628 103.708 275.69 105.629 274.188 106.683C273.438 106.125 272.562 105.753 271.623 105.753C271.123 105.691 270.748 106.125 270.685 106.621C270.685 107.861 269.371 108.729 268.058 109.659C266.494 110.774 264.742 112.014 264.68 114.06C264.68 114.494 264.68 114.928 264.805 115.3C264.867 115.733 264.93 116.105 264.805 116.415C264.68 116.911 264.054 117.345 263.428 117.779C263.178 117.965 262.865 118.151 262.615 118.337C260.426 120.073 259.863 122.738 259.3 125.342C258.862 127.573 258.424 129.619 257.235 130.921C257.048 131.045 256.735 130.983 256.547 130.921C256.359 130.797 256.109 130.611 256.109 130.363C256.109 130.053 255.922 129.743 255.671 129.557C255.421 129.371 255.046 129.433 254.733 129.557C253.294 130.487 252.106 131.727 251.292 133.214C248.727 137.678 243.285 142.885 237.905 144.186C237.154 144.372 236.341 144.496 235.59 144.62C233.839 144.93 232.087 145.178 230.398 146.046C227.208 147.72 225.331 151.563 226.019 155.096C226.082 155.468 226.52 155.84 226.895 155.902C227.083 156.274 227.02 157.08 226.77 157.824L224.831 162.845C224.831 162.845 224.768 163.403 224.893 163.651C225.018 163.899 225.331 164.023 225.581 164.085L227.208 164.209C227.208 164.891 227.02 165.573 226.582 166.193C226.019 166.998 225.206 167.556 224.33 167.742C224.017 167.742 223.705 168.052 223.642 168.362C223.517 168.672 223.642 169.044 223.892 169.23L225.769 170.966C225.581 171.586 225.143 172.205 224.643 172.825C223.955 173.755 223.142 174.809 223.142 176.173C223.142 177.784 224.268 179.024 225.331 180.078C226.832 181.566 228.334 182.93 230.211 183.673C231.086 183.983 231.962 184.169 232.775 184.169C234.214 184.169 235.59 183.673 236.529 182.744C237.092 182.186 237.53 181.442 237.905 180.822C238.343 180.078 238.718 179.396 239.344 179.024C239.782 178.776 240.345 178.652 240.97 178.528C241.408 178.466 241.784 178.342 242.159 178.218C245.537 177.103 247.038 173.445 247.664 170.532C247.914 169.478 248.602 168.424 249.04 168.3C249.103 168.3 249.165 168.3 249.228 168.3C249.478 168.486 249.478 169.23 249.478 169.54L249.353 176.235C249.353 176.607 249.353 177.041 249.353 177.413C249.353 177.722 249.603 177.97 249.854 178.094C249.666 178.342 249.603 178.652 249.666 178.9C249.666 178.9 249.791 179.148 249.791 179.21C250.041 179.706 250.417 180.14 250.729 180.512C250.854 180.698 251.042 180.822 251.167 181.008C252.606 182.806 252.543 185.347 252.418 188.075C252.293 190.926 252.231 193.902 253.982 196.195L254.17 196.443C254.17 196.443 254.545 196.939 254.608 197.125C254.67 197.435 254.42 197.869 254.107 198.365C253.982 198.551 253.857 198.799 253.732 198.985C252.544 201.278 253.482 203.882 254.42 206.175C254.921 207.477 255.609 209.027 256.985 210.019C257.611 210.453 258.424 210.701 259.237 210.701C259.55 210.701 259.8 210.701 260.05 210.577C260.926 210.391 261.552 209.895 261.927 209.213C262.428 208.345 262.302 207.353 262.24 206.547C262.24 205.989 262.115 205.432 262.24 204.998C262.428 204.502 262.928 204.006 263.366 203.572C264.242 202.766 265.305 202.208 265.931 202.27C266.118 202.27 266.244 202.394 266.369 202.518C266.431 202.642 266.494 202.766 266.556 202.89C266.744 203.262 266.932 203.758 267.432 204.006C267.807 204.254 268.308 204.316 268.746 204.192C269.747 203.944 270.435 202.89 270.623 202.58C274.313 196.257 275.94 188.88 275.377 181.628L276.065 182C276.065 182 276.565 182.124 276.753 182C277.003 181.938 277.191 181.752 277.254 181.504C277.691 180.574 278.067 179.83 278.63 179.396C279.068 179.086 279.881 178.962 280.194 179.396C280.381 179.582 280.569 179.706 280.819 179.706C281.195 179.706 281.32 179.644 281.507 179.458C282.446 178.528 282.821 177.103 282.571 175.801L285.574 174.065C285.949 173.817 286.137 173.383 285.949 172.949C285.323 171.524 284.948 169.912 284.948 168.3C284.948 167.866 284.573 167.494 284.135 167.432C280.444 167.184 278.38 162.535 278.505 158.444C278.63 155.654 279.318 152.865 280.507 150.385C280.632 150.137 280.632 149.827 280.507 149.579C280.381 149.331 280.069 149.146 279.756 149.146C279.381 149.146 279.005 149.022 278.692 148.898C282.634 147.658 286.199 145.302 288.889 142.141L289.077 141.955C290.14 140.715 291.204 139.351 292.518 139.537C292.955 139.537 293.206 139.413 293.393 139.103C295.02 136.19 295.833 132.718 295.583 129.371C295.583 128.937 295.52 128.503 295.458 128.069C295.27 126.086 295.082 124.226 296.083 122.924C297.334 121.312 299.837 121.065 303.84 122.18C304.028 122.18 304.216 122.118 304.403 122.056C304.529 122.18 304.529 122.366 304.716 122.428C305.529 122.676 306.468 123.048 307.031 123.792C308.282 125.528 306.593 128.193 306.03 128.999C305.029 130.425 303.84 131.789 302.527 133.028L302.339 133.214C301.839 133.71 301.276 134.144 300.9 134.826C300.462 135.57 300.212 136.314 300.024 137.058C299.962 137.306 299.899 137.616 299.774 137.864C299.023 140.219 296.959 142.141 294.582 142.761C294.144 142.885 293.831 143.319 293.956 143.752C294.707 148.092 294.707 152.431 293.956 156.77C293.581 158.94 292.955 162.597 295.52 164.333C296.083 164.705 296.709 164.953 297.272 165.139C297.647 165.263 298.023 165.387 298.335 165.573C298.711 165.759 299.024 166.131 299.086 166.44C299.086 166.626 299.086 166.688 299.086 166.75C298.898 166.998 298.836 167.37 299.024 167.68C299.149 167.99 299.461 168.176 299.837 168.176C300.587 168.176 301.276 168.92 301.964 169.788L302.402 170.284C303.027 170.966 304.216 171.834 305.467 171.834C306.155 171.834 306.781 171.524 307.219 171.028C307.594 170.594 307.719 170.098 307.844 169.726C307.907 169.478 308.032 169.168 308.094 169.044C308.345 168.734 308.908 168.61 309.596 168.486C309.971 168.486 310.284 168.362 310.597 168.3C311.41 168.052 312.098 167.618 312.786 167.184L313.224 166.936C315.476 165.511 318.103 164.767 320.793 164.705C321.231 164.705 321.607 164.395 321.669 163.961C321.857 162.721 323.921 162.845 324.547 162.907C324.672 162.907 324.735 162.907 324.86 162.845C324.922 162.845 324.985 162.969 325.047 162.969C325.36 162.969 325.735 163.093 326.048 163.217L327.362 163.589L327.612 165.263C327.612 165.263 327.8 165.759 328.05 165.883C328.3 166.007 328.551 166.007 328.801 165.883C330.99 164.953 333.555 165.077 335.682 166.069C333.18 166.564 330.803 167.494 328.613 168.858C328.551 168.858 328.425 168.982 328.363 169.044C328.05 169.478 327.612 169.85 327.174 170.16C327.112 170.222 327.112 170.346 327.049 170.47C326.924 170.47 326.861 170.408 326.799 170.47C324.547 171.834 321.356 171.957 318.541 171.957C314.35 171.957 309.721 172.453 307.406 175.925C307.281 176.111 307.219 176.359 307.281 176.607C307.281 176.855 307.469 177.041 307.656 177.165L308.47 177.66C307.344 179.396 306.906 181.628 307.406 183.611C307.406 183.859 307.656 184.045 307.844 184.169C308.032 184.293 308.345 184.293 308.532 184.169C309.283 183.921 309.971 183.487 310.597 182.93C310.784 183.054 311.222 183.673 311.285 184.355C311.285 184.727 311.285 185.037 311.285 185.409C311.285 185.595 311.347 185.781 311.535 185.967C311.41 186.091 311.347 186.215 311.285 186.401C311.285 189.004 310.597 191.546 309.471 193.778C308.094 193.344 307.031 191.794 306.03 190.368C304.216 187.641 302.026 186.463 300.024 186.959C297.647 187.579 296.959 189.872 296.334 191.918C296.021 192.91 295.708 193.902 295.27 194.707C295.082 194.955 294.895 195.203 294.707 195.513C294.332 196.009 293.956 196.567 293.706 197.187C293.518 197.621 293.456 198.179 293.393 198.737C293.393 198.985 293.581 199.109 293.706 199.233C293.518 199.419 293.393 199.667 293.393 199.915C293.581 203.634 295.333 207.229 298.023 209.771C297.522 209.771 297.022 209.895 296.584 210.019C296.521 209.585 296.334 209.151 296.083 208.779C295.833 208.407 295.27 208.283 294.895 208.531C293.456 209.337 292.58 211.073 292.705 212.746C292.455 212.684 292.205 212.498 292.017 212.374C291.642 212.064 291.329 211.506 291.517 210.949C291.579 210.701 291.517 210.453 291.392 210.205C291.266 209.957 291.016 209.833 290.703 209.833C289.953 209.833 289.202 210.081 288.702 210.639C287.701 211.63 287.45 213.304 287.576 214.544V215.164C287.763 216.28 287.951 217.457 287.513 218.201C285.449 217.643 283.259 216.776 282.884 214.916V214.668C282.696 214.048 282.571 213.18 281.695 212.746C281.007 212.374 280.319 212.622 279.944 212.746L274.126 214.296C268.808 215.722 264.179 219.007 259.925 222.355C259.925 222.231 259.863 222.045 259.738 221.983C259.175 221.363 258.862 220.619 258.737 219.875C258.737 219.441 258.299 219.131 257.861 219.131H255.984C255.859 218.511 255.546 218.015 255.108 217.519C254.107 216.528 252.418 215.97 250.854 216.156C250.104 216.218 249.291 216.404 248.602 216.59C247.476 216.9 246.35 217.147 245.349 216.962C244.161 216.776 243.035 216.032 241.909 215.288C240.407 214.296 238.906 213.304 237.154 213.428C236.842 211.63 236.591 209.833 236.842 208.097C237.092 206.423 238.03 204.378 239.844 203.572C240.095 203.448 240.407 203.324 240.72 203.2C241.909 202.766 243.41 202.208 243.723 200.72C243.973 199.543 243.348 198.427 242.847 197.435C242.222 196.319 242.096 196.009 242.347 195.823C242.534 195.637 242.659 195.451 242.659 195.203C242.659 194.955 242.597 194.707 242.409 194.521C241.659 193.778 240.533 193.53 239.469 193.778C239.219 193.84 238.969 194.026 238.843 194.274L238.343 195.389C235.778 194.521 232.901 194.336 230.273 194.893C229.835 194.955 229.522 195.389 229.585 195.823L230.398 208.531C230.586 211.444 230.836 215.102 232.588 218.015C231.587 218.945 230.774 220.061 230.273 221.301C227.959 219.503 225.081 218.263 222.141 217.829C221.703 217.767 221.202 218.077 221.14 218.511L220.764 220.619C218.2 219.503 215.197 219.503 212.632 220.619C212.382 220.743 212.194 220.929 212.132 221.239L210.693 226.942L209.942 226.694L210.192 223.222C210.192 222.85 210.005 222.479 209.629 222.355C209.254 222.231 208.879 222.293 208.628 222.603L204.437 227.252C203.123 228.739 201.497 230.847 202.122 233.017C202.122 233.017 201.997 233.017 201.935 233.017C200.371 234.07 198.181 234.132 196.617 233.265C196.242 233.017 196.242 233.079 194.741 233.513C193.802 233.823 192.489 234.194 192.238 234.194L191.488 234.318C191.488 234.318 191.3 234.442 191.175 234.566C190.987 234.504 190.8 234.442 190.612 234.566C189.486 234.814 188.61 235.186 187.797 235.744C185.92 236.984 184.419 238.782 182.917 240.517C182.167 241.385 181.416 242.253 180.665 243.059C179.915 243.803 179.289 244.423 178.538 244.919C177.162 245.786 175.41 245.972 173.659 245.538C171.72 245.043 169.968 243.741 169.092 242.067C168.967 241.757 168.779 241.447 168.404 241.137C167.966 240.765 167.341 240.641 166.715 240.765C165.964 240.951 165.276 241.447 164.963 242.129C164.525 242.997 164.588 243.927 164.651 244.733V244.981C164.651 245.6 164.651 246.282 164.338 246.654C163.962 247.088 163.087 247.15 161.71 246.778L160.772 246.53C155.58 245.167 150.2 243.741 144.695 244.237C144.32 244.237 144.007 244.547 143.944 244.857C143.819 245.229 143.944 245.6 144.257 245.786L146.572 247.584L143.944 250.312C143.944 250.312 143.631 250.87 143.756 251.179C143.819 251.489 144.069 251.737 144.382 251.799C147.885 252.605 151.138 254.279 153.953 256.51C154.704 257.13 155.893 258.246 155.58 259.3C155.517 259.548 155.58 259.858 155.705 260.044C155.893 260.292 156.143 260.416 156.393 260.416C156.393 260.416 156.706 260.478 156.894 260.664C157.144 260.912 157.269 261.346 157.269 261.718C157.206 262.523 156.706 263.205 156.018 264.073C155.83 264.321 155.767 264.693 155.955 265.003C157.081 266.987 159.208 268.35 161.46 268.536C160.897 270.83 160.584 273.186 160.522 275.541C160.334 275.355 160.021 275.293 159.709 275.355C159.271 275.479 159.02 275.851 159.02 276.285C159.271 279.632 156.894 282.67 154.454 285.521C153.265 286.885 151.889 288.497 150.137 289.117C149.449 289.365 148.761 289.427 147.885 289.427C147.698 289.427 147.572 289.489 147.385 289.551C147.26 289.489 147.197 289.365 147.072 289.365C146.071 289.241 145.008 288.993 143.756 288.497C141.88 287.815 140.128 286.885 138.314 285.769C137.626 285.335 136.938 284.901 135.999 284.777C135.124 284.715 134.248 285.025 133.497 285.273C132.621 285.583 132.058 285.769 131.62 285.583C131.183 285.397 130.932 284.777 130.682 284.096C130.432 283.476 130.119 282.794 129.619 282.236C128.117 280.686 125.865 281.12 124.114 281.43L123.488 281.554C121.486 281.926 120.923 281.554 120.861 281.43C120.861 281.43 120.735 281.306 120.798 280.996C120.798 280.624 120.673 280.19 120.298 280.066C119.922 279.942 119.547 280.066 119.297 280.376C119.172 280.376 119.046 280.376 118.921 280.252C118.734 280.004 118.608 279.694 118.421 279.322C118.358 279.136 118.296 278.951 118.171 278.765C117.42 277.091 115.856 276.037 114.167 276.099C113.166 276.099 112.228 276.657 111.602 277.463C111.352 277.773 111.164 278.083 111.102 278.455C108.912 277.773 106.472 277.835 104.283 278.579C104.033 278.641 103.845 278.827 103.782 279.074C103.72 279.322 103.72 279.57 103.782 279.818C104.408 280.996 105.034 282.298 105.034 283.6C105.034 284.654 104.345 285.893 103.282 285.955C102.844 285.955 102.469 286.389 102.469 286.823C102.469 290.976 100.529 295.006 98.8404 298.539C97.5893 301.205 96.1505 304.18 93.961 306.412C93.5231 306.846 93.0851 307.279 92.5847 307.713C91.1459 309.015 89.6445 310.379 89.0189 312.363C88.8938 312.796 89.0815 313.292 89.5194 313.416C91.0833 314.098 91.8966 314.78 91.9591 315.586C91.9591 316.02 91.7714 316.516 91.4587 317.136L88.0806 324.079C87.8303 324.636 87.1422 326 87.9555 327.178C88.2057 327.488 88.5185 327.736 88.7687 327.86C90.8331 329.162 93.1477 330.649 95.7751 331.207C96.213 331.331 96.7135 331.393 97.1514 331.393C97.2765 331.393 97.4642 331.393 97.5893 331.393C97.7144 331.455 97.8395 331.517 97.9646 331.517H98.2774C99.1532 331.641 100.029 331.703 100.842 331.889C102.093 332.199 103.595 333.005 103.908 334.307C104.033 334.865 103.908 335.484 103.908 336.104C103.908 336.476 103.845 336.786 103.782 337.158C103.657 339.7 104.846 342.179 106.91 343.667C107.161 343.853 107.473 343.915 107.724 343.791L113.792 341.435L115.105 342.985C115.105 342.985 115.793 343.357 116.106 343.233C116.919 342.923 117.545 342.241 117.795 341.373C117.983 340.754 117.983 340.134 117.795 339.514C118.108 339.452 118.671 339.576 118.984 339.824C119.297 340.072 119.609 340.444 119.922 340.878C120.298 341.311 120.673 341.807 121.173 342.241C122.174 342.985 123.363 343.295 124.426 343.543L133.622 345.651C133.622 345.651 133.747 345.651 133.81 345.651C134.06 345.651 134.31 345.527 134.435 345.403C134.686 345.155 134.748 344.845 134.623 344.535C134.185 343.109 134.748 341.373 135.937 340.506C137.125 339.576 138.94 339.452 140.191 340.258L140.504 340.444C140.941 340.692 141.442 341.063 142.13 341.125C143.756 341.249 144.883 339.7 145.133 338.15L145.258 337.592C145.383 336.786 145.508 335.98 146.009 335.608C146.509 335.175 147.385 335.175 148.323 335.175C149.637 335.175 151.263 335.175 152.077 333.749C152.827 332.447 152.077 331.083 151.576 330.029C151.388 329.658 151.201 329.224 151.076 328.852C150.388 326.806 152.264 324.636 154.266 323.397C154.892 323.025 155.58 322.653 156.268 322.281C158.02 321.351 159.834 320.421 161.147 318.809C161.398 318.499 161.585 318.19 161.836 317.818C162.211 317.198 162.586 316.64 163.087 316.33C163.65 315.958 164.338 315.772 165.026 315.648C165.777 315.524 166.59 315.338 167.403 315.214C171.532 314.532 176.161 313.726 178.413 309.945C178.789 309.325 179.039 308.643 179.226 308.085C179.352 307.837 179.226 307.527 179.101 307.279C179.352 307.156 179.602 306.97 179.664 306.722C179.915 305.916 180.165 305.11 180.478 304.428C181.791 301.762 185.044 300.089 188.235 300.399C191.237 300.709 194.053 302.568 195.742 305.358C195.742 305.606 195.742 305.792 195.867 306.04C196.242 307.032 197.243 307.341 197.743 307.465C198.682 307.713 199.808 308.023 200.934 307.899C202.373 307.713 203.499 306.846 203.874 305.668C203.874 305.482 203.874 305.296 203.874 305.11C203.874 304.738 205.188 303.932 206.001 303.932H206.564C207.815 304.056 209.254 304.056 210.192 302.878C210.38 302.63 210.505 302.32 210.63 302.072C210.693 301.886 210.755 301.762 210.88 301.638C211.131 301.267 211.819 301.267 212.569 301.205H213.132C214.008 301.081 215.072 300.647 215.635 299.779C215.76 299.531 215.885 299.283 215.885 298.973C217.136 298.539 218.95 298.229 220.139 299.655C220.327 299.903 220.702 300.027 221.015 299.965C221.327 299.903 221.578 299.655 221.703 299.345C222.016 298.167 223.016 297.237 224.205 296.927C224.017 299.159 224.33 301.638 225.143 303.994C226.77 308.891 230.148 312.982 233.151 316.64C236.904 321.165 241.096 326.372 246.976 329.1L248.039 329.596C250.917 330.897 254.17 332.385 254.17 335.051V335.299C254.17 335.732 254.17 336.352 254.483 336.91C255.233 338.026 256.485 337.778 257.36 337.84C258.424 337.902 259.3 338.894 259.863 339.638C262.553 343.357 262.177 348.998 259.175 352.531C259.3 352.098 259.362 351.664 259.3 351.168C259.3 350.672 258.862 350.3 258.424 350.3C257.173 350.3 256.109 350.92 255.108 351.416C254.107 351.974 253.232 352.469 252.418 352.222C252.231 352.222 252.106 352.098 251.918 351.974C251.668 351.85 251.417 351.726 251.105 351.664C250.041 351.354 248.853 351.54 247.727 351.664C246.976 351.788 246.288 351.912 245.662 351.85C244.786 351.788 244.036 351.478 243.222 351.23C242.722 351.044 242.222 350.858 241.721 350.734C239.469 350.114 236.466 349.68 235.215 351.168C234.464 352.036 234.464 353.337 235.215 354.949C235.34 355.259 235.59 355.693 235.966 355.941C236.404 356.313 236.967 356.375 237.467 356.437C239.844 356.809 242.096 358.234 243.473 360.342C243.66 360.652 243.911 361.024 244.286 361.272C244.974 361.706 245.725 361.706 246.35 361.644H246.663C246.663 361.644 246.663 361.644 246.726 361.644C247.977 361.644 249.416 362.512 249.478 363.813C249.478 364.309 249.478 365.177 250.291 365.611C250.542 365.735 250.854 365.797 251.105 365.797C251.48 365.797 251.73 365.673 251.918 365.673C252.919 365.363 256.047 364.371 256.172 361.768C256.172 361.21 256.047 360.714 255.922 360.28C255.922 360.032 255.796 359.846 255.796 359.598C255.609 358.296 256.485 357.057 257.36 355.755C257.798 355.073 258.299 354.391 258.612 353.647C258.737 353.957 258.987 354.205 259.3 354.267L263.866 355.197C263.866 355.197 263.991 355.197 264.054 355.197C264.304 355.197 264.554 355.073 264.68 354.949C264.867 354.763 264.992 354.453 264.93 354.143C264.554 352.593 265.993 351.23 267.557 349.742C269.309 348.068 271.311 346.147 270.685 343.667C270.372 342.489 269.559 341.621 268.871 340.878C268.308 340.258 267.745 339.7 267.495 339.018C267.182 338.088 267.682 337.22 268.058 336.848C268.808 335.98 270.06 335.423 271.06 335.608C273.313 335.918 274.876 338.088 275.502 340.072C275.565 340.32 275.752 340.568 276.002 340.63C277.066 341.002 278.129 340.754 279.068 339.948C280.194 338.894 280.694 337.158 280.194 335.794C279.443 333.625 277.441 332.385 275.439 331.269L263.616 324.822C263.929 324.512 264.429 324.326 264.867 324.326C265.118 324.326 265.43 324.264 265.618 324.017C265.806 323.831 265.868 323.521 265.868 323.273C265.555 321.599 263.804 320.731 262.24 320.669C261.614 320.669 261.051 320.669 260.488 320.731C259.863 320.793 259.237 320.855 258.674 320.731C257.923 320.607 257.11 320.297 256.234 319.739C253.67 318.066 251.793 315.214 251.355 312.177C251.292 311.743 251.23 311.309 251.167 310.875C251.042 309.573 250.917 308.271 250.229 307.032C249.291 305.358 247.539 304.366 245.912 303.436C244.098 302.382 242.534 301.515 242.222 299.903C242.034 299.035 242.284 298.105 242.597 297.113C242.722 296.741 242.785 296.307 242.91 295.936C243.16 294.758 243.097 293.332 242.534 292.278C245.412 291.348 248.227 290.171 250.98 288.745C251.167 288.621 251.292 288.497 251.355 288.311C251.355 288.187 251.355 288.063 251.417 287.939C251.417 287.939 251.48 287.939 251.543 288.001C251.605 288.187 251.668 288.497 251.543 288.993C251.543 289.179 251.543 289.365 251.668 289.551C251.543 289.675 251.355 289.675 251.292 289.861C251.042 290.356 250.792 290.852 250.542 291.286C250.229 291.782 249.165 293.642 249.603 295.378C249.791 296.059 250.166 296.679 250.792 296.989C252.168 297.795 253.92 297.175 254.796 296.059C255.484 295.254 255.796 294.262 255.984 293.332C256.172 293.332 256.359 293.394 256.547 293.518C257.298 293.952 257.861 295.068 257.986 296.059C257.986 296.555 257.986 297.113 258.049 297.671C258.049 299.159 258.049 300.709 258.987 302.072C259.487 302.816 260.175 303.374 260.864 303.87C261.427 304.304 261.99 304.738 262.302 305.234C262.553 305.606 262.74 306.102 262.928 306.66C263.178 307.403 263.491 308.209 264.117 308.891C265.243 310.131 266.994 310.379 268.496 310.565H268.934C268.934 310.565 268.996 310.565 269.059 310.565C269.184 310.565 269.309 310.503 269.434 310.441C269.559 310.565 269.684 310.689 269.872 310.751C270.873 310.999 272.249 311.743 272.124 312.796C272.124 313.044 272.124 313.292 272.312 313.54C274.313 315.772 276.753 316.826 279.068 317.694C280.694 318.314 281.945 319.181 282.196 319.863C282.258 320.049 282.196 320.235 282.133 320.483C282.008 320.669 282.008 320.917 282.071 321.165C282.071 321.413 282.258 321.599 282.508 321.723C283.509 322.281 284.573 322.529 285.699 322.529C286.199 322.529 286.637 322.405 287.138 322.281C287.763 324.698 287.325 327.24 286.825 329.905C286.45 332.199 286.012 334.493 286.262 336.848C286.262 337.406 286.45 338.15 287.138 338.584C287.638 338.894 288.201 338.894 288.514 338.894H288.764C289.64 338.894 290.328 339.452 291.079 340.692C291.266 340.939 291.517 341.125 291.829 341.125C291.642 341.373 291.517 341.683 291.642 341.993C291.829 342.303 291.955 342.675 292.142 343.171C292.83 344.659 294.332 346.457 296.146 346.828C295.958 346.952 295.771 347.014 295.52 347.076C295.145 347.138 294.832 347.448 294.832 347.82C294.832 348.192 295.02 348.564 295.333 348.688C297.522 349.68 299.899 349.556 302.151 349.432C303.09 349.432 304.091 349.308 305.029 349.432C306.968 349.494 308.97 350.362 309.971 351.478C310.284 351.788 310.471 352.16 310.597 352.469C306.781 351.478 302.777 351.416 298.898 352.346C298.586 352.407 298.335 352.655 298.21 352.965C298.148 353.275 298.21 353.647 298.46 353.833C300.4 355.507 301.526 358.11 301.401 360.59C301.401 360.9 301.401 361.148 301.401 361.458C301.338 362.326 301.276 363.194 301.463 364.123C301.776 365.425 302.965 366.665 304.341 366.665C304.529 366.665 304.654 366.665 304.841 366.665C305.592 366.541 306.155 366.107 306.53 365.425C306.781 364.991 306.843 364.495 306.906 363.937C307.156 364.495 307.344 365.115 307.281 365.735C307.281 366.107 307.531 366.479 307.907 366.603C308.282 366.727 308.657 366.603 308.908 366.231L309.721 364.991C310.972 365.859 312.411 366.417 313.912 366.541C314.413 366.603 314.6 366.417 314.788 366.107C314.976 365.797 314.913 365.425 314.725 365.177C312.911 362.822 311.347 360.218 310.221 357.491C311.785 357.924 313.287 358.73 314.538 359.722C314.725 359.908 314.913 360.094 315.163 360.218C315.288 360.28 315.476 360.342 315.601 360.342C315.851 360.342 316.164 360.218 316.352 359.97C316.602 359.598 316.54 359.102 316.227 358.792C316.102 358.668 315.977 358.606 315.789 358.42C315.288 357.863 315.163 356.995 315.601 356.437C315.851 356.127 316.289 355.879 316.727 355.879C317.165 355.879 317.666 356.003 317.916 356.251C318.103 356.437 318.291 356.499 318.541 356.499C318.792 356.499 319.042 356.375 319.167 356.251C319.918 355.507 320.23 354.453 319.98 353.275C319.667 351.602 318.291 349.928 316.602 349.122C318.229 349.742 319.167 350.61 320.606 352.222C321.607 353.337 322.733 353.957 323.859 353.957C323.859 353.957 323.921 353.957 323.984 353.957C324.297 353.957 324.609 353.709 324.735 353.399C324.86 353.089 324.797 352.717 324.547 352.469C322.482 350.176 320.23 348.068 317.853 346.147C316.289 344.907 312.598 345.961 311.91 346.147C311.598 346.271 311.347 346.519 311.285 346.89C311.285 346.952 311.347 347.014 311.41 347.076C311.097 346.89 310.722 346.704 310.409 346.457L309.658 341.683C309.908 341.745 310.034 341.931 310.096 342.055C310.284 342.489 310.722 342.737 311.16 342.551C311.723 342.365 312.223 341.931 312.411 341.311C312.661 340.568 312.411 339.638 311.973 338.956C311.535 338.398 310.909 338.026 310.409 337.716C310.159 337.592 309.908 337.468 309.721 337.282C308.97 336.724 308.47 335.67 308.47 334.555C308.47 333.563 308.845 332.695 309.471 332.137C309.971 332.447 310.221 333.563 310.409 334.679C310.597 335.794 311.41 337.22 312.536 337.716C313.161 338.026 313.912 337.964 314.475 337.592C314.725 337.468 314.85 337.22 314.913 336.91C314.913 336.848 314.913 336.724 314.913 336.662L316.164 337.53C316.477 337.716 316.915 337.716 317.228 337.53C317.54 337.344 317.666 336.848 317.478 336.538L317.165 335.856L319.918 336.538C320.293 336.662 320.793 336.414 320.981 335.98C321.169 335.546 320.981 335.113 320.543 334.865C319.104 334.121 317.978 332.819 317.415 331.331C320.293 329.843 323.483 329.1 326.736 329.1H326.924C328.488 329.1 332.304 329.41 333.805 332.075L333.93 332.261C334.181 332.757 334.493 333.315 335.182 333.687C335.807 333.997 336.558 333.935 337.246 333.563C337.371 333.501 337.434 333.253 337.496 333.129C337.684 333.129 337.934 333.067 338.059 332.881C338.56 332.385 338.872 331.765 339.123 331.331C341.312 327.302 346.192 324.946 350.758 325.752C351.196 325.814 351.572 325.628 351.759 325.256C351.947 324.884 351.759 324.45 351.446 324.202C348.882 322.405 346.004 320.359 343.94 317.756C343.877 317.694 343.752 317.632 343.689 317.632C343.689 317.57 343.689 317.508 343.689 317.446C343.439 317.136 343.251 316.826 343.001 316.516C341.312 313.788 340.436 309.759 342.251 306.722C343.251 306.722 344.565 306.288 345.316 304.366C345.441 304.118 345.316 303.87 345.191 303.622C345.378 303.498 345.629 303.374 345.691 303.126C345.816 302.444 345.941 301.638 346.004 300.709L346.254 295.997C346.254 295.997 346.504 295.997 346.567 295.997C349.32 295.936 351.196 293.146 351.259 290.542C351.259 289.799 351.134 288.993 350.946 288.187C350.946 288.063 350.758 288.001 350.633 287.939C350.633 287.815 350.821 287.691 350.758 287.567C350.508 286.761 350.133 285.955 349.757 285.211L353.699 284.901C354.074 284.901 354.324 284.654 354.449 284.344C354.574 284.034 354.449 283.662 354.199 283.414L352.009 281.368C352.51 281.678 353.073 282.05 353.761 282.05C353.761 282.05 353.761 282.05 353.824 282.05C354.574 282.05 355.2 281.616 355.575 280.996C356.076 280.066 355.888 278.703 355.45 277.587L360.83 275.541C361.143 275.417 361.393 275.107 361.393 274.797C361.393 274.053 361.706 273.31 362.081 272.628C362.832 274.363 362.644 276.595 361.456 278.145C361.331 278.331 361.268 278.579 361.268 278.827C361.393 279.508 361.831 280.004 362.519 280.252C363.645 280.686 365.146 280.128 365.96 279.446C366.585 278.889 367.774 277.897 368.337 278.269C368.462 278.393 368.587 278.579 368.775 278.765C368.9 278.951 369.025 279.198 369.213 279.384C369.526 279.756 369.963 280.004 370.464 280.19C369.526 280.562 368.525 280.996 367.649 281.492C366.398 282.174 365.209 282.98 365.334 284.096C365.522 285.397 367.273 285.769 369.526 286.203C370.652 286.451 373.029 286.947 373.279 287.443C373.529 288.063 373.279 288.869 373.029 289.737C372.716 290.79 372.341 292.03 372.841 293.208C372.966 293.456 373.216 293.642 373.467 293.704C373.717 293.704 374.03 293.766 374.28 293.766C375.656 293.766 377.032 293.084 377.846 291.906C377.971 291.658 378.096 291.472 378.284 291.224C378.471 290.914 378.596 290.604 378.784 290.48C378.972 290.295 379.284 290.171 379.535 290.047L385.54 287.195C385.853 287.009 386.041 286.699 386.041 286.327V285.459C387.542 285.211 389.106 284.839 390.607 284.344C391.233 284.096 391.921 283.848 392.421 283.29C393.047 282.546 393.172 281.306 392.296 280.562C391.295 279.694 389.982 280.314 389.419 280.562C387.542 281.43 385.352 281.864 383.351 281.678C382.913 281.678 382.537 281.554 382.225 281.43C381.474 280.996 380.911 280.562 380.41 280.128C378.972 278.951 377.658 277.835 374.593 278.827C374.405 278.827 374.217 278.951 374.03 279.012C374.405 278.331 374.655 277.587 374.468 276.843C374.905 276.657 375.343 276.595 375.906 276.657C376.657 276.781 377.22 277.153 377.595 277.649C377.846 278.021 378.346 278.145 378.721 277.959C380.536 277.029 381.724 275.231 381.974 273.248C382.037 273.248 382.162 273.372 382.225 273.434C382.537 273.681 382.663 274.053 382.663 274.425C382.663 274.859 382.975 275.293 383.413 275.355C385.29 275.665 386.353 274.115 387.292 272.876C387.98 271.884 388.605 271.016 389.419 270.954C389.606 270.954 389.794 270.954 390.044 271.016C390.357 271.016 390.732 271.14 391.17 271.078C392.734 270.954 393.547 269.59 394.236 268.474C394.361 268.226 394.486 268.04 394.673 267.792C395.362 266.801 396.363 265.995 397.801 265.375C397.989 265.313 398.052 265.127 398.114 265.003C398.302 265.003 398.49 265.065 398.677 265.003C399.991 264.569 401.367 264.321 402.743 264.135C402.493 264.631 401.993 264.941 401.492 265.065C401.242 265.065 401.054 265.251 400.929 265.499C400.804 265.747 400.742 265.995 400.867 266.243L401.305 267.545C400.616 267.854 399.741 267.792 399.178 267.359C398.865 267.111 398.427 267.111 398.114 267.359C397.426 267.854 396.926 268.598 396.738 269.404C396.613 269.838 396.863 270.334 397.363 270.458C398.177 270.706 398.865 271.264 399.24 272.132C399.553 272.752 399.678 273.372 399.616 273.991C399.428 273.991 399.24 274.053 399.115 274.177C398.427 274.549 397.864 275.355 397.739 276.161C397.739 276.471 397.676 276.843 397.676 277.153C397.676 277.649 397.676 278.083 397.489 278.331C397.363 278.517 397.113 278.765 396.863 278.951C396.425 279.322 395.987 279.694 395.737 280.376C395.487 280.996 395.549 281.678 395.862 282.298C396.488 283.476 397.926 284.22 399.115 284.53C399.928 284.715 401.805 285.335 401.68 286.265C401.68 286.575 401.805 286.885 402.055 287.071C402.305 287.257 402.618 287.319 402.931 287.195C405.621 286.141 409.437 287.939 411.877 290.233C412.064 290.356 412.315 290.418 412.565 290.418C412.565 290.666 412.565 290.976 412.753 291.162C412.94 291.41 413.128 291.596 413.316 291.844C414.004 292.712 414.754 293.704 415.943 294.2C416.881 294.572 417.882 294.51 418.758 294.448C419.071 294.448 419.384 294.448 419.634 294.448C422.261 294.448 424.826 296.121 426.828 297.423C428.142 298.291 429.643 299.283 430.331 300.647C430.957 301.762 430.894 303.498 429.831 304.18C429.455 304.428 429.33 304.924 429.518 305.296C429.706 305.73 430.206 305.916 430.644 305.73C433.271 304.676 436.274 303.684 438.464 304.986C438.589 305.048 438.714 305.172 438.839 305.234C439.277 305.544 439.777 305.854 440.403 305.978C440.591 305.978 440.841 305.978 441.028 305.978C441.466 305.978 441.904 305.916 442.28 305.792C442.467 305.792 442.717 305.73 442.905 305.668C443.093 305.668 443.28 305.668 443.531 305.668C443.718 305.668 443.969 305.668 444.156 305.544C444.219 305.73 444.219 305.916 444.406 305.978C445.282 306.536 445.908 307.527 446.033 308.581C446.096 309.139 446.033 309.945 445.47 310.627C445.22 310.937 445.157 311.309 445.345 311.681C446.221 313.23 448.035 312.92 449.411 312.735H450.037C452.476 312.363 454.728 313.974 457.168 315.71C459.42 317.322 461.735 318.995 464.362 318.995C464.925 318.995 465.551 318.933 466.114 318.747C467.74 318.252 469.179 317.074 470.368 315.152C470.493 314.966 470.493 314.78 470.43 314.594C470.618 314.532 470.806 314.408 470.868 314.222L471.181 313.602C471.431 313.168 471.619 312.673 471.807 312.239C472.557 310.627 473.183 309.139 474.309 308.023C475.56 306.722 477.687 306.04 479.126 306.97C480.377 309.325 480.752 312.115 480.189 314.718C480.189 315.028 480.189 315.338 480.439 315.524C480.627 315.71 480.815 315.772 481.065 315.772C481.065 315.772 481.19 315.772 481.253 315.772C482.629 315.462 484.068 315.338 485.507 315.338C485.694 315.338 486.007 315.214 486.132 315.09C486.32 314.904 486.382 314.656 486.382 314.408C486.257 312.549 486.257 310.813 486.257 309.077C486.257 307.279 486.257 305.544 486.132 303.622C486.007 301.081 486.57 297.981 488.509 297.609C488.572 297.609 488.697 297.609 488.76 297.609C489.26 297.547 489.573 297.113 489.51 296.617C489.51 296.121 489.01 295.874 488.509 295.874C488.384 295.874 488.322 295.874 488.197 295.874C485.194 296.183 482.817 294.014 480.189 291.658C479.188 290.728 478.125 289.799 477.061 288.993C476.436 288.559 475.81 288.125 475.122 287.753C474.934 287.691 474.809 287.753 474.622 287.753C474.559 287.629 474.497 287.443 474.309 287.319C473.558 286.947 472.87 286.575 472.119 286.203C469.867 285.149 467.803 284.096 466.114 282.484C465.488 281.864 464.925 281.12 464.425 280.314C463.924 279.508 463.612 278.579 463.174 277.649C462.673 276.409 462.11 275.107 461.359 273.991C460.046 272.194 457.731 270.83 455.604 271.202L456.48 259.548C457.043 259.672 457.544 259.92 457.981 260.23C458.169 260.354 458.482 260.416 458.67 260.354C458.92 260.354 459.107 260.168 459.233 259.92L463.236 252.977C463.236 252.977 463.424 252.357 463.236 252.109C463.111 251.861 462.798 251.675 462.486 251.675C461.422 251.675 460.421 250.87 459.983 249.878L461.922 250.064C462.298 250.126 462.736 249.878 462.861 249.506C462.986 249.134 462.861 248.7 462.486 248.452C459.483 246.468 456.042 243.183 453.728 240.021C453.54 239.773 453.29 239.649 453.039 239.649C452.789 239.649 452.476 239.773 452.351 239.959C451.663 240.827 451.225 241.943 451.163 243.059C451.163 243.059 451.163 243.059 451.1 243.059C450.6 242.997 449.974 242.439 449.661 241.881C449.536 241.695 449.474 241.447 449.349 241.199C448.848 240.083 448.222 238.782 446.784 238.348C446.221 238.162 445.72 238.224 445.22 238.224C444.907 238.224 444.594 238.224 444.344 238.224C443.843 238.162 443.593 237.542 443.531 236.984C443.531 236.426 443.718 235.868 444.219 235.682C444.532 235.62 444.782 235.372 444.844 235.062C444.907 234.752 444.844 234.442 444.594 234.194C442.53 232.025 442.217 228.739 442.154 225.268C442.154 224.524 442.154 223.718 442.53 223.346C442.717 223.222 442.843 223.16 443.155 223.16C443.593 223.16 444.094 223.47 444.344 223.78C444.907 224.462 445.095 225.516 445.22 226.694C445.22 226.818 445.22 226.88 445.282 227.004C445.658 227.748 446.471 228.182 447.347 228.12C448.473 228.12 449.536 227.314 449.912 226.384C450.662 224.586 449.474 222.603 449.161 221.983L448.911 221.549C448.535 220.929 448.16 220.309 447.972 219.689C448.535 219.689 449.161 219.875 449.661 220.185C450.037 220.433 450.537 220.371 450.85 219.999C451.1 219.627 451.1 219.131 450.85 218.821C449.286 217.271 450.975 214.234 451.538 213.366C452.727 211.444 454.103 209.523 455.604 207.787L456.48 209.275C456.48 209.275 456.98 209.771 457.356 209.709C457.731 209.709 457.981 209.399 458.107 209.089C458.67 207.105 459.921 205.246 461.61 203.944C462.11 204.192 462.548 204.564 462.923 204.998C463.049 205.122 463.111 205.308 463.236 205.37C463.424 205.494 463.612 205.556 463.799 205.556C464.049 205.556 464.237 205.494 464.425 205.308C464.738 204.998 464.8 204.502 464.487 204.13C464.487 204.068 464.362 204.006 464.3 203.944C464.3 203.944 464.3 203.82 464.3 203.696C464.362 203.51 464.55 203.324 464.738 203.262C465.301 203.014 466.114 203.262 466.927 203.572L478.375 207.787C478.75 207.911 479.188 207.787 479.376 207.477C479.626 207.167 479.626 206.733 479.376 206.423L477.499 204.006L482.629 204.688C483.129 204.688 483.505 204.44 483.63 204.068C484.318 201.526 486.132 199.357 488.509 198.241L489.823 198.551C489.823 198.551 490.449 198.551 490.636 198.303C490.824 198.055 490.949 197.745 490.824 197.435C490.511 196.443 490.887 195.265 491.825 194.336C492.576 193.592 493.577 193.158 494.515 193.282L494.89 194.583C494.89 194.583 495.14 195.017 495.391 195.141C495.641 195.265 495.891 195.265 496.141 195.141C497.643 194.46 499.332 194.15 500.958 194.212C501.146 194.212 501.459 194.15 501.584 193.964C501.709 193.778 501.834 193.592 501.834 193.344V191.67L506.213 190.368C506.401 190.368 506.526 190.182 506.651 190.058L506.964 189.624C508.653 187.269 511.218 183.797 508.528 181.69L509.654 181.628ZM455.417 299.779L455.479 299.655L455.354 299.779H455.417ZM211.694 236.612V236.736H211.569L211.694 236.612ZM231.837 279.88L232.65 280.066C232.65 280.066 232.65 280.314 232.65 280.376C232.65 280.376 232.65 280.376 232.588 280.376C232.588 280.376 232.713 280.314 232.713 280.252L231.9 279.88H231.837ZM307.531 90.194L306.968 90.8759H306.843L307.406 90.256L307.531 90.132V90.194Z" fill="#D4D4D4"></path>
    <path d="M386.416 338.46L385.978 338.274C385.478 338.026 385.04 337.84 384.852 337.53C384.727 337.282 384.727 336.972 384.789 336.538C384.789 336.166 384.789 335.794 384.789 335.484C384.477 333.377 382.099 332.137 380.098 332.385C378.721 332.509 377.533 333.005 376.344 333.501C375.969 333.687 375.594 333.811 375.156 333.997C372.841 334.865 370.276 335.113 368.087 334.679C366.961 334.431 365.772 333.997 364.771 333.625L359.266 331.641C357.264 330.897 355.012 330.091 352.572 330.277C350.633 330.463 348.944 331.269 347.255 332.075C345.566 332.881 344.002 333.625 342.188 333.687C341.688 333.687 340.999 333.687 340.436 334.183C339.936 334.555 339.748 335.051 339.623 335.484C339.561 335.732 339.435 335.918 339.373 336.042C338.247 337.034 336.558 336.972 334.681 336.972C332.93 336.972 331.053 336.91 329.614 337.84C328.05 338.832 327.612 340.32 328.551 341.869C329.051 342.737 329.739 342.923 330.114 343.109C330.365 343.171 330.49 343.233 330.49 343.171C330.552 343.419 330.677 344.473 330.74 345.155H330.427C330.427 345.155 329.989 345.403 329.864 345.589C329.739 345.775 329.677 346.023 329.739 346.271C329.927 347.324 330.615 348.192 331.553 348.75C331.366 349.432 331.428 350.052 331.616 350.672C331.866 351.416 332.429 351.974 333.242 352.345C333.43 352.407 333.618 352.531 333.868 352.531C333.868 352.779 334.056 353.027 334.306 353.151C335.119 353.585 335.932 353.461 336.62 353.337C337.058 353.275 337.496 353.213 337.809 353.337C338.059 353.461 338.309 353.771 338.56 354.205C338.81 354.577 339.06 355.011 339.498 355.383C340.186 355.941 341.125 356.127 342.063 355.879C343.001 355.631 343.689 355.011 344.002 354.205C344.002 354.081 344.127 353.895 344.127 353.709C344.127 353.523 344.19 353.399 344.377 353.275C344.628 353.275 345.128 353.523 345.378 353.895C345.504 354.081 345.629 354.267 345.691 354.391C346.192 355.135 346.755 356.065 347.818 356.375C348.068 356.437 348.256 356.437 348.506 356.437C349.32 356.437 350.07 356.065 350.571 355.817L354.887 353.709C355.262 353.523 355.638 353.337 355.951 353.337C356.201 353.337 356.514 353.399 356.764 353.523L359.767 354.391C359.767 354.391 360.142 354.391 360.33 354.391C360.392 354.391 360.455 354.391 360.517 354.391C360.517 354.391 360.517 354.391 360.517 354.453C360.517 354.577 360.392 354.763 360.392 354.825H360.204C360.204 354.825 359.516 355.011 359.204 355.383C358.828 355.755 358.766 356.251 358.766 356.499L358.39 359.66C358.14 361.52 359.016 362.078 359.516 362.264C358.515 363.194 357.89 364.371 357.64 365.735C357.389 367.099 357.64 368.339 358.39 369.206C359.016 369.95 359.892 370.384 360.767 370.384C361.268 370.384 361.768 370.26 362.206 369.95C362.582 369.702 362.894 369.33 363.145 369.02C363.395 368.711 363.583 368.463 363.77 368.401C363.895 368.401 364.02 368.401 364.208 368.401C364.458 368.401 364.709 368.525 364.896 368.463C365.522 368.463 366.022 368.215 366.46 368.029C370.714 366.169 374.718 364.247 376.532 360.342C376.782 359.784 377.032 359.164 377.22 358.544C377.595 357.429 377.971 356.437 378.659 355.693C378.847 355.507 379.097 355.321 379.284 355.135C379.597 354.887 379.91 354.639 380.16 354.329C380.911 353.461 381.161 352.469 380.848 351.602C382.099 351.54 383.413 351.354 384.664 351.044C385.102 350.92 385.978 350.734 386.478 349.99C386.854 349.432 386.791 348.812 386.791 348.316C386.791 348.068 386.791 347.82 386.791 347.696C386.791 347.634 386.916 347.51 386.979 347.386C387.104 347.2 387.229 347.014 387.354 346.766C387.792 345.713 387.354 344.597 386.979 343.729C386.666 343.047 386.541 342.613 386.604 342.427L387.605 342.055C387.605 342.055 388.042 341.745 388.105 341.497C388.48 340.258 387.542 339.204 386.478 338.646L386.416 338.46Z" fill="#D4D4D4"></path>
    <path d="M307.531 417C261.677 417 222.954 411.483 181.791 398.341V380.426C221.202 393.01 263.554 399.395 307.531 399.395C467.302 399.395 597.296 313.726 597.296 208.469C597.296 103.212 467.302 17.5429 307.531 17.5429C263.491 17.5429 221.202 23.9278 181.791 36.5115V18.2868C222.954 5.14509 261.677 -0.0619888 307.531 -0.0619888C477.124 -0.0619888 615.063 93.4794 615.063 208.407C615.063 323.335 477.124 416.876 307.531 416.876V417Z" fill="#3789D0"></path>
    <path d="M181.729 398.341C74.6308 364.185 0 288.931 0 208.469C0 128.007 74.6308 52.5667 181.729 18.3487V36.5735C82.0751 68.3739 17.7037 135.818 17.7037 208.469C17.7037 281.12 82.0751 348.626 181.729 380.426V398.341Z" fill="#19376D"></path>
    <path d="M113.604 217.395H8.88312V199.853H113.604C115.23 199.853 116.607 201.154 116.607 202.828V214.482C116.607 216.094 115.293 217.457 113.604 217.457V217.395Z" fill="#19376D"></path>
    <path d="M158.895 246.964V161.729C158.895 136.314 175.285 119.329 199.558 119.329C223.83 119.329 238.781 136.996 239.469 164.519C239.469 166.378 238.531 167.556 236.404 167.556H221.202C219.326 167.556 218.137 166.626 218.137 164.519C217.637 148.03 210.317 139.289 199.37 139.289C187.484 139.289 180.603 147.286 180.603 160.49V248.08C180.603 261.284 187.484 269.28 199.37 269.28C211.256 269.28 218.888 259.61 219.326 242.439C219.326 240.331 220.514 239.402 222.391 239.402H237.592C239.469 239.402 240.658 240.579 240.658 242.687C239.719 271.202 223.767 289.303 199.558 289.303C175.348 289.303 158.895 272.318 158.895 246.902V246.964Z" fill="#19376D"></path>
    <path d="M301.526 283.476V162.907C301.526 137.244 316.977 119.329 341.437 119.329C365.897 119.329 382.35 137.244 382.35 162.907V186.959C382.35 211.011 366.398 227.5 341.688 227.5H322.92V283.538C322.92 285.645 321.732 286.823 319.855 286.823H304.654C302.777 286.823 301.588 285.645 301.588 283.538L301.526 283.476ZM340.937 207.601C353.323 207.601 360.642 200.039 360.642 187.331V161.915C360.642 148.278 353.261 139.289 341.625 139.289C329.989 139.289 322.858 148.216 322.858 161.915V207.601H340.937Z" fill="#19376D"></path>
    <path d="M444.156 283.476V162.907C444.156 137.244 459.608 119.329 484.068 119.329C508.528 119.329 524.98 137.244 524.98 162.907V186.959C524.98 211.011 509.028 227.5 484.318 227.5H465.551V283.538C465.551 285.645 464.362 286.823 462.486 286.823H447.284C445.407 286.823 444.219 285.645 444.219 283.538L444.156 283.476ZM483.567 207.601C495.954 207.601 503.273 200.039 503.273 187.331V161.915C503.273 148.278 495.891 139.289 484.255 139.289C472.62 139.289 465.488 148.216 465.488 161.915V207.601H483.567Z" fill="#19376D"></path>
    <rect x="175.16" y="371.934" width="12.5114" height="30.9945" fill="white"></rect>
    <rect x="175.16" y="12.3978" width="12.5114" height="30.9945" fill="white"></rect>
  </g>
  <defs>
    <clipPath id="clip0_209_1078">
      <rect width="615" height="417" fill="white"></rect>
    </clipPath>
  </defs>
</svg>
